<mxfile host="app.diagrams.net" agent="Mozilla/5.0 (Windows NT 10.0; Win64; x64) AppleWebKit/537.36 (KHTML, like Gecko) Chrome/135.0.0.0 Safari/537.36" version="26.2.14">
  <diagram id="user_function_diagram" name="用户功能图">
    <mxGraphModel dx="1489" dy="753" grid="1" gridSize="10" guides="1" tooltips="1" connect="1" arrows="1" fold="1" page="1" pageScale="1" pageWidth="1169" pageHeight="827" math="0" shadow="0">
      <root>
        <mxCell id="0" />
        <mxCell id="1" parent="0" />
        <mxCell id="role-user" value="用户 (User/Host)" style="rounded=1;whiteSpace=wrap;html=1;fontSize=14;fontStyle=1;labelBackgroundColor=none;" parent="1" vertex="1">
          <mxGeometry x="100" y="200" width="180" height="60" as="geometry" />
        </mxCell>
        <mxCell id="func-auth-user" value="身份认证" style="rounded=1;whiteSpace=wrap;html=1;fontSize=12;labelBackgroundColor=none;" parent="1" vertex="1">
          <mxGeometry x="350" y="80" width="120" height="50" as="geometry" />
        </mxCell>
        <mxCell id="func-profile" value="个人资料管理" style="rounded=1;whiteSpace=wrap;html=1;fontSize=12;labelBackgroundColor=none;" parent="1" vertex="1">
          <mxGeometry x="350" y="280" width="120" height="50" as="geometry" />
        </mxCell>
        <mxCell id="uf-register" value="注册" style="rounded=0;whiteSpace=wrap;html=1;fontSize=11;labelBackgroundColor=none;" parent="1" vertex="1">
          <mxGeometry x="530" y="40" width="100" height="40" as="geometry" />
        </mxCell>
        <mxCell id="uf-login" value="登录" style="rounded=0;whiteSpace=wrap;html=1;fontSize=11;labelBackgroundColor=none;" parent="1" vertex="1">
          <mxGeometry x="530" y="90" width="100" height="40" as="geometry" />
        </mxCell>
        <mxCell id="uf-logout" value="登出" style="rounded=0;whiteSpace=wrap;html=1;fontSize=11;labelBackgroundColor=none;" parent="1" vertex="1">
          <mxGeometry x="530" y="140" width="100" height="40" as="geometry" />
        </mxCell>
        <mxCell id="uf-change-pwd" value="修改密码" style="rounded=0;whiteSpace=wrap;html=1;fontSize=11;labelBackgroundColor=none;" parent="1" vertex="1">
          <mxGeometry x="530" y="190" width="100" height="40" as="geometry" />
        </mxCell>
        <mxCell id="uf-view-profile" value="查看资料" style="rounded=0;whiteSpace=wrap;html=1;fontSize=11;labelBackgroundColor=none;" parent="1" vertex="1">
          <mxGeometry x="530" y="250" width="100" height="40" as="geometry" />
        </mxCell>
        <mxCell id="uf-update-profile" value="更新资料" style="rounded=0;whiteSpace=wrap;html=1;fontSize=11;labelBackgroundColor=none;" parent="1" vertex="1">
          <mxGeometry x="530" y="300" width="100" height="40" as="geometry" />
        </mxCell>
        <mxCell id="uf-upload-avatar" value="上传头像" style="rounded=0;whiteSpace=wrap;html=1;fontSize=11;labelBackgroundColor=none;" parent="1" vertex="1">
          <mxGeometry x="530" y="350" width="100" height="40" as="geometry" />
        </mxCell>
        <mxCell id="role-admin" value="管理员 (Admin)" style="rounded=1;whiteSpace=wrap;html=1;fontSize=14;fontStyle=1;labelBackgroundColor=none;" parent="1" vertex="1">
          <mxGeometry x="100" y="650" width="180" height="60" as="geometry" />
        </mxCell>
        <mxCell id="func-auth-admin" value="身份认证" style="rounded=1;whiteSpace=wrap;html=1;fontSize=12;labelBackgroundColor=none;" parent="1" vertex="1">
          <mxGeometry x="350" y="550" width="120" height="50" as="geometry" />
        </mxCell>
        <mxCell id="func-user-mgmt" value="用户管理" style="rounded=1;whiteSpace=wrap;html=1;fontSize=12;labelBackgroundColor=none;" parent="1" vertex="1">
          <mxGeometry x="350" y="700" width="120" height="50" as="geometry" />
        </mxCell>
        <mxCell id="af-login" value="登录" style="rounded=0;whiteSpace=wrap;html=1;fontSize=11;labelBackgroundColor=none;" parent="1" vertex="1">
          <mxGeometry x="530" y="525" width="100" height="40" as="geometry" />
        </mxCell>
        <mxCell id="af-logout" value="登出" style="rounded=0;whiteSpace=wrap;html=1;fontSize=11;labelBackgroundColor=none;" parent="1" vertex="1">
          <mxGeometry x="530" y="575" width="100" height="40" as="geometry" />
        </mxCell>
        <mxCell id="af-list-users" value="查看用户列表" style="rounded=0;whiteSpace=wrap;html=1;fontSize=11;labelBackgroundColor=none;" parent="1" vertex="1">
          <mxGeometry x="530" y="650" width="100" height="40" as="geometry" />
        </mxCell>
        <mxCell id="af-view-user" value="查看用户详情" style="rounded=0;whiteSpace=wrap;html=1;fontSize=11;labelBackgroundColor=none;" parent="1" vertex="1">
          <mxGeometry x="530" y="700" width="100" height="40" as="geometry" />
        </mxCell>
        <mxCell id="af-create-user" value="创建用户" style="rounded=0;whiteSpace=wrap;html=1;fontSize=11;labelBackgroundColor=none;" parent="1" vertex="1">
          <mxGeometry x="530" y="750" width="100" height="40" as="geometry" />
        </mxCell>
        <mxCell id="af-update-user" value="更新用户" style="rounded=0;whiteSpace=wrap;html=1;fontSize=11;labelBackgroundColor=none;" parent="1" vertex="1">
          <mxGeometry x="530" y="800" width="100" height="40" as="geometry" />
        </mxCell>
        <mxCell id="af-delete-user" value="删除用户" style="rounded=0;whiteSpace=wrap;html=1;fontSize=11;labelBackgroundColor=none;" parent="1" vertex="1">
          <mxGeometry x="700" y="650" width="100" height="40" as="geometry" />
        </mxCell>
        <mxCell id="af-toggle-status" value="启用/禁用用户" style="rounded=0;whiteSpace=wrap;html=1;fontSize=11;labelBackgroundColor=none;" parent="1" vertex="1">
          <mxGeometry x="700" y="700" width="100" height="40" as="geometry" />
        </mxCell>
        <mxCell id="af-reset-pwd" value="重置密码" style="rounded=0;whiteSpace=wrap;html=1;fontSize=11;labelBackgroundColor=none;" parent="1" vertex="1">
          <mxGeometry x="700" y="750" width="100" height="40" as="geometry" />
        </mxCell>
        <mxCell id="conn-user-auth" value="" style="edgeStyle=orthogonalEdgeStyle;rounded=0;orthogonalLoop=1;jettySize=auto;html=1;entryX=0;entryY=0.5;entryDx=0;entryDy=0;labelBackgroundColor=none;fontColor=default;" parent="1" source="role-user" target="func-auth-user" edge="1">
          <mxGeometry relative="1" as="geometry">
            <mxPoint x="290" y="230" as="sourcePoint" />
            <Array as="points">
              <mxPoint x="290" y="105" />
            </Array>
          </mxGeometry>
        </mxCell>
        <mxCell id="conn-user-profile" value="" style="edgeStyle=orthogonalEdgeStyle;rounded=0;orthogonalLoop=1;jettySize=auto;html=1;entryX=0;entryY=0.5;entryDx=0;entryDy=0;labelBackgroundColor=none;fontColor=default;" parent="1" source="role-user" target="func-profile" edge="1">
          <mxGeometry relative="1" as="geometry">
            <mxPoint x="290" y="305" as="sourcePoint" />
            <Array as="points">
              <mxPoint x="290" y="305" />
            </Array>
          </mxGeometry>
        </mxCell>
        <mxCell id="conn-auth-register" value="" style="edgeStyle=orthogonalEdgeStyle;rounded=0;orthogonalLoop=1;jettySize=auto;html=1;entryX=0;entryY=0.5;entryDx=0;entryDy=0;labelBackgroundColor=none;fontColor=default;" parent="1" source="func-auth-user" target="uf-register" edge="1">
          <mxGeometry relative="1" as="geometry" />
        </mxCell>
        <mxCell id="conn-auth-login" value="" style="edgeStyle=orthogonalEdgeStyle;rounded=0;orthogonalLoop=1;jettySize=auto;html=1;entryX=0;entryY=0.5;entryDx=0;entryDy=0;labelBackgroundColor=none;fontColor=default;" parent="1" source="func-auth-user" target="uf-login" edge="1">
          <mxGeometry relative="1" as="geometry" />
        </mxCell>
        <mxCell id="conn-auth-logout" value="" style="edgeStyle=orthogonalEdgeStyle;rounded=0;orthogonalLoop=1;jettySize=auto;html=1;entryX=0;entryY=0.5;entryDx=0;entryDy=0;labelBackgroundColor=none;fontColor=default;" parent="1" source="func-auth-user" target="uf-logout" edge="1">
          <mxGeometry relative="1" as="geometry" />
        </mxCell>
        <mxCell id="conn-auth-change-pwd" value="" style="edgeStyle=orthogonalEdgeStyle;rounded=0;orthogonalLoop=1;jettySize=auto;html=1;entryX=0;entryY=0.5;entryDx=0;entryDy=0;labelBackgroundColor=none;fontColor=default;" parent="1" source="func-auth-user" target="uf-change-pwd" edge="1">
          <mxGeometry relative="1" as="geometry" />
        </mxCell>
        <mxCell id="conn-profile-view" value="" style="edgeStyle=orthogonalEdgeStyle;rounded=0;orthogonalLoop=1;jettySize=auto;html=1;entryX=0;entryY=0.5;entryDx=0;entryDy=0;labelBackgroundColor=none;fontColor=default;" parent="1" source="func-profile" target="uf-view-profile" edge="1">
          <mxGeometry relative="1" as="geometry"/>
        </mxCell>
        <mxCell id="conn-profile-update" value="" style="edgeStyle=orthogonalEdgeStyle;rounded=0;orthogonalLoop=1;jettySize=auto;html=1;entryX=0;entryY=0.5;entryDx=0;entryDy=0;labelBackgroundColor=none;fontColor=default;" parent="1" source="func-profile" target="uf-update-profile" edge="1">
          <mxGeometry relative="1" as="geometry"/>
        </mxCell>
        <mxCell id="conn-profile-avatar" value="" style="edgeStyle=orthogonalEdgeStyle;rounded=0;orthogonalLoop=1;jettySize=auto;html=1;entryX=0;entryY=0.5;entryDx=0;entryDy=0;labelBackgroundColor=none;fontColor=default;" parent="1" source="func-profile" target="uf-upload-avatar" edge="1">
          <mxGeometry relative="1" as="geometry"/>
        </mxCell>
        <mxCell id="conn-admin-auth" value="" style="edgeStyle=orthogonalEdgeStyle;rounded=0;orthogonalLoop=1;jettySize=auto;html=1;entryX=0;entryY=0.5;entryDx=0;entryDy=0;labelBackgroundColor=none;fontColor=default;" parent="1" source="role-admin" target="func-auth-admin" edge="1">
          <mxGeometry relative="1" as="geometry">
            <mxPoint x="290" y="680" as="sourcePoint" />
            <Array as="points">
              <mxPoint x="290" y="575" />
            </Array>
          </mxGeometry>
        </mxCell>
        <mxCell id="conn-admin-usermgmt" value="" style="edgeStyle=orthogonalEdgeStyle;rounded=0;orthogonalLoop=1;jettySize=auto;html=1;entryX=0;entryY=0.5;entryDx=0;entryDy=0;labelBackgroundColor=none;fontColor=default;" parent="1" source="role-admin" target="func-user-mgmt" edge="1">
          <mxGeometry relative="1" as="geometry">
            <mxPoint x="290" y="725" as="sourcePoint" />
            <Array as="points">
              <mxPoint x="290" y="725" />
            </Array>
          </mxGeometry>
        </mxCell>
        <mxCell id="conn-adminauth-login" value="" style="edgeStyle=orthogonalEdgeStyle;rounded=0;orthogonalLoop=1;jettySize=auto;html=1;entryX=0;entryY=0.5;entryDx=0;entryDy=0;labelBackgroundColor=none;fontColor=default;" parent="1" source="func-auth-admin" target="af-login" edge="1">
          <mxGeometry relative="1" as="geometry" />
        </mxCell>
        <mxCell id="conn-adminauth-logout" value="" style="edgeStyle=orthogonalEdgeStyle;rounded=0;orthogonalLoop=1;jettySize=auto;html=1;entryX=0;entryY=0.5;entryDx=0;entryDy=0;labelBackgroundColor=none;fontColor=default;" parent="1" source="func-auth-admin" target="af-logout" edge="1">
          <mxGeometry relative="1" as="geometry" />
        </mxCell>
        <mxCell id="conn-usermgmt-list" value="" style="edgeStyle=orthogonalEdgeStyle;rounded=0;orthogonalLoop=1;jettySize=auto;html=1;entryX=0;entryY=0.5;entryDx=0;entryDy=0;labelBackgroundColor=none;fontColor=default;" parent="1" source="func-user-mgmt" target="af-list-users" edge="1">
          <mxGeometry relative="1" as="geometry"/>
        </mxCell>
        <mxCell id="conn-usermgmt-view" value="" style="edgeStyle=orthogonalEdgeStyle;rounded=0;orthogonalLoop=1;jettySize=auto;html=1;entryX=0;entryY=0.5;entryDx=0;entryDy=0;labelBackgroundColor=none;fontColor=default;" parent="1" source="func-user-mgmt" target="af-view-user" edge="1">
          <mxGeometry relative="1" as="geometry"/>
        </mxCell>
        <mxCell id="conn-usermgmt-create" value="" style="edgeStyle=orthogonalEdgeStyle;rounded=0;orthogonalLoop=1;jettySize=auto;html=1;entryX=0;entryY=0.5;entryDx=0;entryDy=0;labelBackgroundColor=none;fontColor=default;" parent="1" source="func-user-mgmt" target="af-create-user" edge="1">
          <mxGeometry relative="1" as="geometry"/>
        </mxCell>
        <mxCell id="conn-usermgmt-update" value="" style="edgeStyle=orthogonalEdgeStyle;rounded=0;orthogonalLoop=1;jettySize=auto;html=1;entryX=0;entryY=0.5;entryDx=0;entryDy=0;labelBackgroundColor=none;fontColor=default;" parent="1" source="func-user-mgmt" target="af-update-user" edge="1">
          <mxGeometry relative="1" as="geometry"/>
        </mxCell>
        <mxCell id="conn-usermgmt-delete" value="" style="edgeStyle=orthogonalEdgeStyle;rounded=0;orthogonalLoop=1;jettySize=auto;html=1;entryX=0;entryY=0.5;entryDx=0;entryDy=0;labelBackgroundColor=none;fontColor=default;" parent="1" source="af-list-users" target="af-delete-user" edge="1">
          <mxGeometry relative="1" as="geometry"/>
        </mxCell>
        <mxCell id="conn-usermgmt-status" value="" style="edgeStyle=orthogonalEdgeStyle;rounded=0;orthogonalLoop=1;jettySize=auto;html=1;entryX=0;entryY=0.5;entryDx=0;entryDy=0;labelBackgroundColor=none;fontColor=default;" parent="1" source="af-view-user" target="af-toggle-status" edge="1">
          <mxGeometry relative="1" as="geometry"/>
        </mxCell>
        <mxCell id="conn-usermgmt-resetpwd" value="" style="edgeStyle=orthogonalEdgeStyle;rounded=0;orthogonalLoop=1;jettySize=auto;html=1;entryX=0;entryY=0.5;entryDx=0;entryDy=0;labelBackgroundColor=none;fontColor=default;" parent="1" source="af-create-user" target="af-reset-pwd" edge="1">
          <mxGeometry relative="1" as="geometry"/>
        </mxCell>
      </root>
    </mxGraphModel>
  </diagram>
</mxfile>
 